# xmcd
#
# Track frame offsets:
#	150
#	12232
#	28727
#	45297
#	57387
#	70570
#	81070
#	95922
#	110702
#	124052
#
# Disc length: 1851 seconds
#
# Revision: 0
# Processed by: cddbd v1.5.2PL0 Copyright (c) Steve Scherf et al.
# Submitted via: EasyCDDAExtractor 16.0.1.1
#
DISCID=7f07390a
DTITLE=Kim Tsoy - Pure Country
DYEAR=1900
DGENRE=Country
TTITLE0=I'm In The Yellow Pages Under Blue
TTITLE1=Come Closing Time
TTITLE2=The Sound Of The Sun Goin' Down
TTITLE3=How Much Will It Cost Me
TTITLE4=Statue Of A Fool
TTITLE5=Take The Keys To My Hear
TTITLE6=I'll Be All Over You Tonight
TTITLE7=Three Hearts In A Tangle
TTITLE8=I Need The Real Thing
TTITLE9=Let's Let The Feeling Grow
EXTD=
EXTT0=
EXTT1=
EXTT2=
EXTT3=
EXTT4=
EXTT5=
EXTT6=
EXTT7=
EXTT8=
EXTT9=
PLAYORDER=
